<svg width="194" height="144" viewBox="0 0 194 144" fill="none" xmlns="http://www.w3.org/2000/svg">
<path d="M184.7 36.2C178.5 25.3 170 16.7 159.1 10.3C148.2 3.90001 136 0.700012 122.6 0.700012H71.4C57.9 0.700012 45.7 3.90001 34.9 10.3C24 16.7 15.5 25.3 9.29999 36.2C3.09999 47.1 0 59.1 0 72.1C0 85.1 3.09999 97.1 9.29999 108C15.5 118.9 24 127.5 34.9 133.9C45.8 140.3 58 143.5 71.4 143.5H122.6C136.1 143.5 148.3 140.3 159.1 133.9C170 127.5 178.5 118.9 184.7 108C190.9 97.1 194 85.1 194 72.1C194 59.1 190.9 47 184.7 36.2ZM165.6 97.1C161.2 104.7 155.3 110.6 147.7 115.1C140.1 119.5 131.7 121.7 122.5 121.7C113.2 121.7 104.8 119.5 97.3 115.1C89.7 110.7 83.8 104.7 79.4 97.1C75 89.5 72.9 81.2 72.9 72.1C72.9 63 75.1 54.6 79.4 47.1C83.8 39.5 89.7 33.6 97.3 29.1C104.9 24.7 113.3 22.5 122.5 22.5C131.8 22.5 140.2 24.7 147.7 29.1C155.3 33.5 161.2 39.5 165.6 47.1C170 54.7 172.1 63 172.1 72.1C172.2 81.2 170 89.5 165.6 97.1Z" fill="white"/>
</svg>
