<svg width="753" height="144" viewBox="0 0 753 144" fill="none" xmlns="http://www.w3.org/2000/svg">
<path d="M743.5 36.2C737.3 25.3 728.8 16.7 717.9 10.3C707 3.90001 694.8 0.700012 681.4 0.700012H630.2C616.7 0.700012 604.5 3.90001 593.7 10.3C582.8 16.7 574.3 25.3 568.1 36.2C561.9 47.1 558.8 59.1 558.8 72.1C558.8 85.1 561.9 97.1 568.1 108C574.3 118.9 582.8 127.5 593.7 133.9C604.6 140.3 616.8 143.5 630.2 143.5H681.4C694.9 143.5 707.1 140.3 717.9 133.9C728.8 127.5 737.3 118.9 743.5 108C749.7 97.1 752.8 85.1 752.8 72.1C752.8 59.1 749.7 47 743.5 36.2ZM724.4 97.1C720 104.7 714.1 110.6 706.5 115.1C698.9 119.5 690.5 121.7 681.3 121.7C672 121.7 663.6 119.5 656.1 115.1C648.5 110.7 642.6 104.7 638.2 97.1C633.8 89.5 631.7 81.2 631.7 72.1C631.7 63 633.9 54.6 638.2 47.1C642.6 39.5 648.5 33.6 656.1 29.1C663.7 24.7 672.1 22.5 681.3 22.5C690.6 22.5 699 24.7 706.5 29.1C714.1 33.5 720 39.5 724.4 47.1C728.8 54.7 730.9 63 730.9 72.1C731 81.2 728.8 89.5 724.4 97.1Z" fill="white"/>
<path d="M126.5 66.2C116.7 66.2 109.3 66 104.4 65.6C99.4 65.2 94.8 64.6 90.4 63.8C86.5 63 83 62.6 80 62.6C75.8 62.6 72.4 63.9 70 66.6C67.6 69.3 66.3 72.5 66.3 76.3C66.3 79.8 67.5 82.9 70 85.6C72.4 88.3 75.8 89.6 80 89.6C85.7 89.6 92.4 87.9 99.4 87.3C102.8 87 107.5 86.8 113.5 86.8V105.4C109.4 110.4 103.9 114.4 96.9 117.1C89.9 119.9 82.3 121.3 74.1 121.3C64.6 121.3 56.1 119.2 48.8 115.1C41.5 110.9 35.7 105.1 31.7 97.6C27.6 90.1 25.6 81.6 25.6 72.1C25.6 62.6 27.6 54.1 31.5 46.8C35.4 39.5 41 33.8 48.1 29.8C55.2 25.8 63.4 23.8 72.7 23.8C82.9 23.8 90.3 25.6 96.6 29.9C105.5 36.1 106.2 42.7 112.3 45.5C120.8 49.4 127 44.2 128.2 43.2C131.3 40.3 132.7 36.9 132.3 32.9C131.9 28.9 130 25 126.6 21.4C121.2 15.8 113.8 11.1 104.5 7.2C95 3 84.5 1 72.8 1C59.3 1 47.1 4 36.1 10C25.1 16 16.4 24.4 9.99999 35.2C3.59999 46 0.399994 58.3 0.399994 72C0.399994 85.7 3.59999 98 9.99999 108.8C16.4 119.6 25.1 128.1 36.2 134.1C47.3 140.2 59.6 143.2 73 143.2C85.9 143.2 97.7 140.9 108.4 136.3C119.1 131.7 127.6 124.7 134 115.5C136.4 111.8 137.7 107.2 137.7 101.6V78.8C137.7 75 136.7 71.9 134.6 69.6C132.6 67.3 129.9 66.2 126.5 66.2Z" fill="white"/>
<path d="M208.4 82.9C218.4 83.5 219.5 85.3 228.7 85.3C233 85.3 236.4 84.1 239.1 81.7C241.8 79.2 243.1 76 243.1 72C243.1 68.1 241.8 64.8 239.1 62.2C236.4 59.6 233 58.3 228.8 58.3C219.6 58.3 218.6 60.3 208.7 61C204.5 61.3 198.6 61.4 190.8 61.4V24.9C198.8 24.8 205.3 24.8 210.2 25C215.1 25.2 219.2 25.5 222.6 26.2C233.3 28.5 237.6 30.8 245.6 30.8C250.1 30.8 253.7 29.6 256.3 27.1C258.9 24.6 260.3 21.3 260.3 17.1C260.3 12.6 258.9 9.1 256 6.7C253.1 4.3 249.1 3 244 3H177.5C174.2 3 171.6 4 169.6 6C167.6 8 166.6 10.5 166.6 13.7V130.7C166.6 133.8 167.6 136.4 169.6 138.4C171.6 140.4 174.2 141.4 177.5 141.4H244C249.3 141.4 253.4 140.1 256.1 137.6C258.9 135.1 260.3 131.6 260.3 127.3C260.3 123.1 259 119.7 256.3 117.1C253.6 114.5 250.1 113.2 245.6 113.2C237 113.2 231.9 117.4 216.3 118.9C210.7 119.5 202.2 119.6 190.9 119.5V82.5C198.3 82.5 204.1 82.6 208.4 82.9Z" fill="white"/>
<path d="M400.3 98.8C396.6 95.8 392.7 94.7 388.5 95.5C378.1 97.5 378.2 107.2 369.3 113.9C363.2 118.5 355.1 120.8 345 120.8C336.3 120.8 328.5 118.8 321.7 114.7C314.9 110.6 309.6 104.9 305.9 97.5C302.2 90.1 300.3 81.6 300.3 72.1C300.3 62.6 302.2 54.1 305.9 46.8C309.6 39.5 314.9 33.7 321.6 29.7C328.3 25.7 336.1 23.6 345 23.6C349.8 23.6 354.2 23.9 358.1 25.2C378 32.2 373.4 41.7 383.3 46.7C385.8 48 388.4 48.5 391.2 48.3C393.9 48.1 396.5 47 399 44.9C402.4 42.2 403.9 38.7 403.6 34.5C403.3 30.3 401.4 26.2 398 22.3C393 16.3 385.9 11.3 376.9 7.20001C367.8 3.10001 357.5 1.10001 346 1.10001C332.8 1.10001 320.8 4.10001 310.1 10C299.3 15.9 290.9 24.3 284.7 35.1C278.5 45.9 275.4 58.3 275.4 72.2C275.4 86.1 278.5 98.4 284.7 109.2C290.9 120 299.4 128.4 310.1 134.4C320.8 140.4 332.8 143.4 346 143.4C358 143.4 368.5 141.3 377.6 137.1C386.7 132.9 394 127.6 399.4 121.4C403.1 117.5 405 113.4 405.2 109.2C405.3 104.8 403.7 101.4 400.3 98.8Z" fill="white"/>
<path d="M461.1 15.9C461.1 10.8 459.8 7.8 457.2 5.1C454.6 2.4 450.8 1 445.8 1C441 1 437.3 2.6 434.7 5.8C432 9 430.7 12.9 430.7 17.5V126.5C430.7 131.1 432 135 434.7 138.2C437.4 141.4 441.1 143 445.8 143C450.8 143 454.6 141.6 457.2 138.9C459.8 136.2 461.1 132.6 461.1 128.3C461 125 460.4 121.7 459.5 117.5C457.9 110.4 456.9 106.9 456.1 99.4C455.5 93.8 455.2 84.6 455.2 71.9C455.2 59.2 455.5 50.1 456.1 44.4C457.7 29.7 461.1 24.1 461.1 15.9Z" fill="white"/>
<path d="M512.6 93.5C507.5 88.8 500.2 81.3 490.7 71.2C501 60.2 508.9 52.3 514.3 47.4C519.7 42.6 524.7 38.4 529.5 34.8C534 31.5 537.5 28.6 539.9 26C542.9 22.6 544.4 19.1 544.5 15.4C544.6 11.7 543.3 8.6 540.7 6C537.4 2.9 533.8 1.5 529.7 1.9C525.6 2.3 521.7 4.6 517.9 8.79999L468.3 62.7C465.4 66 464 69 464 71.9C464 74.9 465.4 78 468.3 81.1L520.2 135.8C524 139.9 528 142.1 532.1 142.4C536.2 142.7 540 141.4 543.2 138.2C549.8 131.6 547.1 123.2 542.1 117.8C537.6 113.2 531.2 110.6 512.6 93.5Z" fill="white"/>
</svg>
